<svg xmlns="http://www.w3.org/2000/svg" viewBox="0 0 380 95" width="100%" height="100%">
  <g transform="translate(10, 8)">
    <circle cx="40" cy="40" r="38" fill="#009edb" opacity="0.08"/>
    <!-- Outer Olive Wreath -->
    <path d="M 40 76 C 20 76 6 62 6 40 C 6 27 13 15 24 9 C 22 13 21 19 23 24 C 18 30 16 37 18 45 C 21 54 28 62 40 66 C 52 62 59 54 62 45 C 64 37 62 30 57 24 C 59 19 58 13 56 9 C 67 15 74 27 74 40 C 74 62 60 76 40 76 Z" fill="#009edb"/>
    <!-- Leaves -->
    <path d="M 29 21 C 24 17 21 23 24 28 C 28 26 29 23 29 21 Z" fill="#009edb"/>
    <path d="M 51 21 C 56 17 59 23 56 28 C 52 26 51 23 51 21 Z" fill="#009edb"/>
    <path d="M 20 34 C 15 32 14 38 17 42 C 20 39 21 36 20 34 Z" fill="#009edb"/>
    <path d="M 60 34 C 65 32 66 38 63 42 C 60 39 59 36 60 34 Z" fill="#009edb"/>
    <path d="M 19 50 C 14 51 16 57 20 59 C 21 55 21 52 19 50 Z" fill="#009edb"/>
    <path d="M 61 50 C 66 51 64 57 60 59 C 59 55 59 52 61 50 Z" fill="#009edb"/>
    <!-- Polar Grid -->
    <circle cx="40" cy="40" r="25" fill="none" stroke="#009edb" stroke-width="2"/>
    <circle cx="40" cy="40" r="16" fill="none" stroke="#009edb" stroke-width="1.6"/>
    <circle cx="40" cy="40" r="7" fill="none" stroke="#009edb" stroke-width="1.3"/>
    <line x1="40" y1="15" x2="40" y2="65" stroke="#009edb" stroke-width="1.6"/>
    <line x1="15" y1="40" x2="65" y2="40" stroke="#009edb" stroke-width="1.6"/>
    <line x1="22" y1="22" x2="58" y2="58" stroke="#009edb" stroke-width="1.3"/>
    <line x1="22" y1="58" x2="58" y2="22" stroke="#009edb" stroke-width="1.3"/>
  </g>
  <text x="102" y="44" font-family="'Plus Jakarta Sans', Arial, sans-serif" font-weight="900" font-size="24" fill="#002D62" letter-spacing="1">UNITED NATIONS</text>
  <text x="103" y="68" font-family="'Plus Jakarta Sans', Arial, sans-serif" font-weight="700" font-size="12" fill="#009edb" letter-spacing="3.5">NATIONS UNIES</text>
</svg>
